Coordinates
version=1
nRows=16
nColumns=40
inDegrees=yes
endheader
time	pelvis_tilt	pelvis_list	pelvis_rotation	pelvis_tx	pelvis_ty	pelvis_tz	hip_flexion_r	hip_adduction_r	hip_rotation_r	knee_angle_r	knee_angle_r_beta	ankle_angle_r	subtalar_angle_r	mtp_angle_r	hip_flexion_l	hip_adduction_l	hip_rotation_l	knee_angle_l	knee_angle_l_beta	ankle_angle_l	subtalar_angle_l	mtp_angle_l	lumbar_extension	lumbar_bending	lumbar_rotation	arm_flex_r	arm_add_r	arm_rot_r	elbow_flex_r	pro_sup_r	wrist_flex_r	wrist_dev_r	arm_flex_l	arm_add_l	arm_rot_l	elbow_flex_l	pro_sup_l	wrist_flex_l	wrist_dev_l
1760625285.22629595	      2.15246665	     -2.30107759	      0.57232511	      0.15724454	      0.87715374	     -0.00415578	     80.00000000	     -7.00000000	      0.00000000	     80.00000000	      1.39626340	      0.00000000	      0.00000000	      0.00000000	     80.00000000	     -7.00000000	      0.00000000	     80.00000000	      1.39626340	      0.00000000	      0.00000000	      0.00000000	     -6.83564849	      4.43651198	      0.35980004	      7.36461640	     -7.48878293	     13.29977391	      0.00000000	      0.39104693	     -2.28709042	    -24.99999983	     -9.09668782	    -52.71060529	     -5.81367818	      0.00000000	     16.47017967	     -2.67491777	    -24.99999983
1760625285.23629594	      2.22130133	     -2.06187477	      0.49679539	      0.15746097	      0.87709491	     -0.00415447	     80.00000000	     -7.00000000	      0.00000000	     80.00000000	      1.39626340	      0.00000000	      0.00000000	      0.00000000	     80.00000000	     -7.00000000	      0.00000000	     80.00000000	      1.39626340	      0.00000000	      0.00000000	      0.00000000	     -6.93327638	      4.22989924	     -0.43864376	      7.84154587	     -7.33563776	     13.04915106	      0.00000000	      1.50704622	     -3.53741537	    -24.99999983	    -11.30039343	    -53.65319201	     -9.31695993	      0.00000000	     14.95226863	     -2.82256046	    -24.99999983
1760625285.24629593	      2.21885174	     -2.08932608	      0.54935756	      0.15731665	      0.87705782	     -0.00411104	     80.00000000	     -7.00000000	      0.00000000	     80.00000000	      1.39626340	      0.00000000	      0.00000000	      0.00000000	     80.00000000	     -7.00000000	      0.00000000	     80.00000000	      1.39626340	      0.00000000	      0.00000000	      0.00000000	     -6.94176863	      4.32641217	     -0.30901265	      7.75377299	     -7.31777570	     13.02878957	      0.00000000	      1.51139658	     -3.56249380	    -24.99999983	    -11.63438674	    -54.67985515	     -9.31642193	      0.00000000	     14.96856430	     -2.82465449	    -24.99999983
1760625285.25629592	      2.23144607	     -2.14256668	      0.23871210	      0.15731840	      0.87688422	     -0.00326444	     80.00000000	     -7.00000000	      0.00000000	     80.00000000	      1.39626340	      0.00000000	      0.00000000	      0.00000000	     80.00000000	     -7.00000000	      0.00000000	     80.00000000	      1.39626340	      0.00000000	      0.00000000	      0.00000000	     -7.01367834	      4.38291894	     -0.48947100	      8.05409705	     -7.22211681	     12.84498061	      0.00000000	      1.61129466	     -3.78410164	    -24.99999983	    -13.63716692	    -55.46306884	     -9.83534518	      0.00000000	     14.78154355	     -2.85731394	    -24.99999983
1760625285.26629591	      2.24894146	     -2.14778646	      0.38031052	      0.15735737	      0.87688714	     -0.00341299	     80.00000000	     -7.00000000	      0.00000000	     80.00000000	      1.39626340	      0.00000000	      0.00000000	      0.00000000	     80.00000000	     -7.00000000	      0.00000000	     80.00000000	      1.39626340	      0.00000000	      0.00000000	      0.00000000	     -7.01070594	      4.46242107	     -0.41429727	      7.91390292	     -7.20944382	     12.82393467	      0.00000000	      1.62085042	     -3.81323597	    -24.99999983	    -13.98146969	    -56.47216745	     -9.88565912	      0.00000000	     14.76613696	     -2.86473997	    -24.99999983
1760625285.27629590	      2.25793993	     -2.15793607	      0.47376729	      0.15726871	      0.87683843	     -0.00339314	     80.00000000	     -7.00000000	      0.00000000	     80.00000000	      1.39626340	      0.00000000	      0.00000000	      0.00000000	     80.00000000	     -7.00000000	      0.00000000	     80.00000000	      1.39626340	      0.00000000	      0.00000000	      0.00000000	     -7.01947852	      4.52520521	     -0.32709975	      7.80761502	     -7.18341303	     12.79814519	      0.00000000	      1.63011620	     -3.84176079	    -24.99999983	    -14.41833991	    -57.48169118	     -9.96638043	      0.00000000	     14.73017707	     -2.88567189	    -24.99999983
1760625285.28629589	      2.37923980	     -1.87559875	      0.79438901	      0.15750940	      0.87659352	     -0.00385997	     80.00000000	     -7.00000000	      0.00000000	     80.00000000	      1.39626340	      0.00000000	      0.00000000	      0.00000000	     80.00000000	     -7.00000000	      0.00000000	     80.00000000	      1.39626340	      0.00000000	      0.00000000	      0.00000000	     -7.17558997	      4.24258983	     -1.86215225	      8.49241462	     -6.94916591	     12.39442507	      0.00000000	      2.09046535	     -4.39233971	    -24.99999983	    -18.25947468	    -58.04831302	    -12.63726700	      0.00000000	     13.37975092	     -3.13854326	    -24.99999983
1760625285.29629588	      2.37815767	     -1.89717607	      0.83995095	      0.15735990	      0.87656867	     -0.00373975	     80.00000000	     -7.00000000	      0.00000000	     80.00000000	      1.39626340	      0.00000000	      0.00000000	      0.00000000	     80.00000000	     -7.00000000	      0.00000000	     80.00000000	      1.39626340	      0.00000000	      0.00000000	      0.00000000	     -7.18866388	      4.31411209	     -1.64331498	      8.34948184	     -6.92501290	     12.37742089	      0.00000000	      2.10808412	     -4.42360955	    -24.99999983	    -18.61459818	    -59.04127337	    -12.70584945	      0.00000000	     13.36185846	     -3.13799359	    -24.99999983
1760625285.30629611	      2.46465445	     -1.75696332	      0.74699410	      0.15753812	      0.87650797	     -0.00347062	     80.00000000	     -7.00000000	      0.00000000	     80.00000000	      1.39626340	      0.00000000	      0.00000000	      0.00000000	     80.00000000	     -7.00000000	      0.00000000	     80.00000000	      1.39626340	      0.00000000	      0.00000000	      0.00000000	     -7.29519515	      4.16050488	     -2.28355208	      8.75312224	     -6.76342742	     12.01251608	      0.00000000	      2.76295312	     -5.20486367	    -24.99999983	    -21.18258582	    -59.74696413	    -16.29039492	      0.00000000	     11.59571370	     -3.23928378	    -24.99999983
1760625285.31629610	      2.45878776	     -1.78216562	      0.82992948	      0.15729494	      0.87646110	     -0.00347309	     80.00000000	     -7.00000000	      0.00000000	     80.00000000	      1.39626340	      0.00000000	      0.00000000	      0.00000000	     80.00000000	     -7.00000000	      0.00000000	     80.00000000	      1.39626340	      0.00000000	      0.00000000	      0.00000000	     -7.31145738	      4.23675993	     -2.06989812	      8.60435081	     -6.75857904	     11.99416453	      0.00000000	      2.77738715	     -5.23688391	    -24.99999983	    -21.53844348	    -60.72723534	    -16.32663256	      0.00000000	     11.60290064	     -3.22563140	    -24.99999983
1760625285.32629609	      2.47558788	     -1.79977159	      0.88212799	      0.15730657	      0.87641436	     -0.00344729	     80.00000000	     -7.00000000	      0.00000000	     80.00000000	      1.39626340	      0.00000000	      0.00000000	      0.00000000	     80.00000000	     -7.00000000	      0.00000000	     80.00000000	      1.39626340	      0.00000000	      0.00000000	      0.00000000	     -7.31822167	      4.30421813	     -1.85066082	      8.43068204	     -6.75029487	     11.96490290	      0.00000000	      2.78750342	     -5.27238613	    -24.99999983	    -21.98873846	    -61.67498176	    -16.39960234	      0.00000000	     11.58601947	     -3.22710811	    -24.99999983
1760625285.33629608	      2.69194457	     -1.56124690	      0.83410838	      0.15755192	      0.87628384	     -0.00315604	     80.00000000	     -7.00000000	      0.00000000	     80.00000000	      1.39626340	      0.00000000	      0.00000000	      0.00000000	     80.00000000	     -7.00000000	      0.00000000	     80.00000000	      1.39626340	      0.00000000	      0.00000000	      0.00000000	     -7.59628861	      4.00018391	     -2.87192006	      9.05343747	     -6.50942975	     11.52642494	      0.00000000	      3.27028985	     -6.02611061	    -24.99999983	    -26.11337556	    -61.99835439	    -19.41989842	      0.00000000	     10.39434977	     -3.18728873	    -24.99999983
1760625285.34629607	      2.68273881	     -1.59423490	      0.93319701	      0.15732758	      0.87624473	     -0.00316083	     80.00000000	     -7.00000000	      0.00000000	     80.00000000	      1.39626340	      0.00000000	      0.00000000	      0.00000000	     80.00000000	     -7.00000000	      0.00000000	     80.00000000	      1.39626340	      0.00000000	      0.00000000	      0.00000000	     -7.60544557	      4.07805857	     -2.63179067	      8.87601867	     -6.51069262	     11.51138918	      0.00000000	      3.28804231	     -6.06129581	    -24.99999983	    -26.49537478	    -62.94879043	    -19.49009152	      0.00000000	     10.39427182	     -3.17030960	    -24.99999983
1760625285.35629606	      2.69471683	     -1.62233818	      0.99274199	      0.15735251	      0.87618401	     -0.00309947	     80.00000000	     -7.00000000	      0.00000000	     80.00000000	      1.39626340	      0.00000000	      0.00000000	      0.00000000	     80.00000000	     -7.00000000	      0.00000000	     80.00000000	      1.39626340	      0.00000000	      0.00000000	      0.00000000	     -7.60646080	      4.14357410	     -2.38231420	      8.66599844	     -6.50372626	     11.49141056	      0.00000000	      3.30911703	     -6.09692404	    -24.99999983	    -26.97243783	    -63.86258815	    -19.60142903	      0.00000000	     10.36718755	     -3.17096558	    -24.99999983
1760625285.36629605	      2.80710303	     -1.40754540	      0.92454890	      0.15743023	      0.87584023	     -0.00268740	     80.00000000	     -7.00000000	      0.00000000	     80.00000000	      1.39626340	      0.00000000	      0.00000000	      0.00000000	     80.00000000	     -7.00000000	      0.00000000	     80.00000000	      1.39626340	      0.00000000	      0.00000000	      0.00000000	     -7.79965539	      3.83018548	     -3.46670741	      9.31504376	     -6.23991626	     11.24472890	      0.00000000	      4.05051351	     -6.89367672	    -24.99999983	    -31.60524409	    -63.96028291	    -23.68501978	      0.00000000	      8.89996769	     -3.12324161	    -24.99999983
1760625285.37629604	      2.80205566	     -1.43589067	      1.03097067	      0.15714030	      0.87584483	     -0.00274578	     80.00000000	     -7.00000000	      0.00000000	     80.00000000	      1.39626340	      0.00000000	      0.00000000	      0.00000000	     80.00000000	     -7.00000000	      0.00000000	     80.00000000	      1.39626340	      0.00000000	      0.00000000	      0.00000000	     -7.82119605	      3.90278756	     -3.20746741	      9.13851134	     -6.25691011	     11.22970279	      0.00000000	      4.06795930	     -6.93190953	    -24.99999983	    -32.00275903	    -64.84767532	    -23.75189177	      0.00000000	      8.91691338	     -3.09034869	    -24.99999983
